# xmcd
#
# Track frame offsets: 
#        150
#        18627
#        33821
#        48575
#        60813
#        75150
#        92005
#        107244
#        124712
#        144209
#        161981
#        176471
#        190936
#        210193
#        227062
#        243152
#
# Disc length: 3390 seconds
#
# Revision: 0
# Processed by: cddbd v1.5.2PL0 Copyright (c) Steve Scherf et al.
# Submitted via: ExactAudioCopy v0.99pb4
#
DISCID=be0d3c10
DTITLE=Various Artist - HC200839
DYEAR=2008
DGENRE=Country
TTITLE0=Dean Brody - Brothers
TTITLE1=Dierks Bentley - Feel That Fire
TTITLE2=Jimmy Wayne - I Will [Single Edit]
TTITLE3=Lost Trailers - How 'Bout You Don't
TTITLE4=Mark Wills - The Things We Forget
TTITLE5=Jessica Simpson - Remember That
TTITLE6=Gary Allan - She's So California [Album Version]
TTITLE7=Mark Chesnutt - Come On In The Whiskey's Fine
TTITLE8=Sterling Simms Feat. Jadakiss - All I Need [Clean]
TTITLE9=Robin Thicke - The Sweetest Love
TTITLE10=Lawson Rollins - Cafe Jobim [Instrumental Radio Edit]
TTITLE11=Lawson Rollins - Cafe Jobim [Radio Edit With Vocals]
TTITLE12=Al Williams III - One Hundred Ways [Full Version]
TTITLE13=Eldridge Jackson - I Like That [Radio Edit]
TTITLE14=Natalie Cole - Nice 'N' Easy
TTITLE15=Natalie Cole - Coffee Time
EXTD=
EXTT0=
EXTT1=
EXTT2=
EXTT3=
EXTT4=
EXTT5=
EXTT6=
EXTT7=
EXTT8=
EXTT9=
EXTT10=
EXTT11=
EXTT12=
EXTT13=
EXTT14=
EXTT15=
PLAYORDER=
